{
  "accessors": [
    {
      "bufferView": 2,
      "componentType": 5126,
      "count": 3230,
      "max": [
        15.333356857299805,
        6.579686641693115,
        5.129782676696777
      ],
      "min": [
        -21.8210391998291,
        -0.17090541124343872,
        -5.1297760009765625
      ],
      "type": "VEC3"
    },
    {
      "bufferView": 2,
      "byteOffset": 38760,
      "componentType": 5126,
      "count": 3230,
      "max": [
        1.0,
        1.0,
        1.0
      ],
      "min": [
        -1.0,
        -1.0,
        -1.0
      ],
      "type": "VEC3"
    },
    {
      "bufferView": 3,
      "componentType": 5126,
      "count": 3230,
      "max": [
        1.0,
        1.0,
        1.0,
        1.0
      ],
      "min": [
        1.0,
        1.0,
        1.0,
        1.0
      ],
      "type": "VEC4"
    },
    {
      "bufferView": 1,
      "componentType": 5126,
      "count": 3230,
      "max": [
        1.4990234375,
        1.7490234375
      ],
      "min": [
        -0.998046875,
        -0.499267578125
      ],
      "type": "VEC2"
    },
    {
      "bufferView": 0,
      "componentType": 5125,
      "count": 5397,
      "type": "SCALAR"
    },
    {
      "bufferView": 2,
      "byteOffset": 77520,
      "componentType": 5126,
      "count": 320,
      "max": [
        13.546293258666992,
        5.869720935821533,
        2.4077677726745605
      ],
      "min": [
        -13.744370460510254,
        5.869720458984375,
        -2.394193172454834
      ],
      "type": "VEC3"
    },
    {
      "bufferView": 2,
      "byteOffset": 81360,
      "componentType": 5126,
      "count": 320,
      "max": [
        0.0,
        -1.0,
        0.0
      ],
      "min": [
        0.0,
        -1.0,
        0.0
      ],
      "type": "VEC3"
    },
    {
      "bufferView": 3,
      "byteOffset": 51680,
      "componentType": 5126,
      "count": 320,
      "max": [
        1.0,
        1.0,
        1.0,
        1.0
      ],
      "min": [
        1.0,
        1.0,
        1.0,
        0.0
      ],
      "type": "VEC4"
    },
    {
      "bufferView": 1,
      "byteOffset": 25840,
      "componentType": 5126,
      "count": 320,
      "max": [
        -0.10337495803833008,
        -1.508126139640808
      ],
      "min": [
        -0.42988085746765137,
        -1.5469119548797607
      ],
      "type": "VEC2"
    },
    {
      "bufferView": 0,
      "byteOffset": 21588,
      "componentType": 5125,
      "count": 900,
      "type": "SCALAR"
    },
    {
      "bufferView": 2,
      "byteOffset": 85200,
      "componentType": 5126,
      "count": 4893,
      "max": [
        15.376066207885742,
        4.181485652923584,
        5.039762020111084
      ],
      "min": [
        -21.79800796508789,
        0.05072394385933876,
        -5.039762020111084
      ],
      "type": "VEC3"
    },
    {
      "bufferView": 2,
      "byteOffset": 143916,
      "componentType": 5126,
      "count": 4893,
      "max": [
        1.0,
        1.0,
        1.0
      ],
      "min": [
        -1.0,
        -1.0,
        -1.0
      ],
      "type": "VEC3"
    },
    {
      "bufferView": 1,
      "byteOffset": 28400,
      "componentType": 5126,
      "count": 4893,
      "max": [
        1.998046875,
        1.7353515625
      ],
      "min": [
        -0.9990234375,
        -2.5033950805664063e-06
      ],
      "type": "VEC2"
    },
    {
      "bufferView": 0,
      "byteOffset": 25188,
      "componentType": 5125,
      "count": 8682,
      "type": "SCALAR"
    },
    {
      "bufferView": 2,
      "byteOffset": 202632,
      "componentType": 5126,
      "count": 24,
      "max": [
        7.891379356384277,
        3.565829277038574,
        4.911467552185059
      ],
      "min": [
        -7.961352825164795,
        2.8308839797973633,
        -4.911465644836426
      ],
      "type": "VEC3"
    },
    {
      "bufferView": 2,
      "byteOffset": 202920,
      "componentType": 5126,
      "count": 24,
      "max": [
        0.0,
        3.244038225602708e-06,
        1.0
      ],
      "min": [
        0.0,
        0.0,
        -1.0
      ],
      "type": "VEC3"
    },
    {
      "bufferView": 1,
      "byteOffset": 67544,
      "componentType": 5126,
      "count": 24,
      "max": [
        0.9849412441253662,
        0.9747317433357239
      ],
      "min": [
        0.010714358650147915,
        0.023129703477025032
      ],
      "type": "VEC2"
    },
    {
      "bufferView": 0,
      "byteOffset": 59916,
      "componentType": 5125,
      "count": 36,
      "type": "SCALAR"
    },
    {
      "bufferView": 2,
      "byteOffset": 203208,
      "componentType": 5126,
      "count": 113,
      "max": [
        -15.336382865905762,
        3.736245632171631,
        2.655789852142334
      ],
      "min": [
        -15.463736534118652,
        -0.017142698168754578,
        -0.16828195750713348
      ],
      "type": "VEC3"
    },
    {
      "bufferView": 2,
      "byteOffset": 204564,
      "componentType": 5126,
      "count": 113,
      "max": [
        1.0,
        0.9607606530189514,
        0.9777149558067322
      ],
      "min": [
        -0.0003438322164583951,
        -0.9767683148384094,
        -1.0
      ],
      "type": "VEC3"
    },
    {
      "bufferView": 1,
      "byteOffset": 67736,
      "componentType": 5126,
      "count": 113,
      "max": [
        0.999060332775116,
        0.5164968967437744
      ],
      "min": [
        0.003724058158695698,
        0.00016511231660842896
      ],
      "type": "VEC2"
    },
    {
      "bufferView": 0,
      "byteOffset": 60060,
      "componentType": 5125,
      "count": 195,
      "type": "SCALAR"
    },
    {
      "bufferView": 2,
      "byteOffset": 205920,
      "componentType": 5126,
      "count": 65,
      "max": [
        -15.363839149475098,
        3.7367680072784424,
        2.9388906114036217e-05
      ],
      "min": [
        -15.463733673095703,
        -0.01714191399514675,
        -2.6930923461914063
      ],
      "type": "VEC3"
    },
    {
      "bufferView": 2,
      "byteOffset": 206700,
      "componentType": 5126,
      "count": 65,
      "max": [
        1.0,
        0.22339603304862976,
        1.0
      ],
      "min": [
        0.0,
        -0.32304471731185913,
        -1.9691733541549183e-05
      ],
      "type": "VEC3"
    },
    {
      "bufferView": 1,
      "byteOffset": 68640,
      "componentType": 5126,
      "count": 65,
      "max": [
        0.9995701909065247,
        0.5164968967437744
      ],
      "min": [
        0.002239194931462407,
        6.164598744362593e-05
      ],
      "type": "VEC2"
    },
    {
      "bufferView": 0,
      "byteOffset": 60840,
      "componentType": 5125,
      "count": 123,
      "type": "SCALAR"
    }
  ],
  "asset": {
    "extras": {
      "author": "sxnneh (https://sketchfab.com/Sxnneh)",
      "license": "CC-BY-4.0 (http://creativecommons.org/licenses/by/4.0/)",
      "source": "https://sketchfab.com/3d-models/plane-cabin-freefire-17d7240ae16e4697bb1c37249de79f33",
      "title": "Plane Cabin | freefire"
    },
    "generator": "Sketchfab-16.61.0",
    "version": "2.0"
  },
  "bufferViews": [
    {
      "buffer": 0,
      "byteLength": 61332,
      "name": "floatBufferViews",
      "target": 34963
    },
    {
      "buffer": 0,
      "byteLength": 69160,
      "byteOffset": 61332,
      "byteStride": 8,
      "name": "floatBufferViews",
      "target": 34962
    },
    {
      "buffer": 0,
      "byteLength": 207480,
      "byteOffset": 130492,
      "byteStride": 12,
      "name": "floatBufferViews",
      "target": 34962
    },
    {
      "buffer": 0,
      "byteLength": 56800,
      "byteOffset": 337972,
      "byteStride": 16,
      "name": "floatBufferViews",
      "target": 34962
    }
  ],
  "buffers": [
    {
      "byteLength": 394772,
      "uri": "scene.bin"
    }
  ],
  "images": [
    {
      "uri": "textures/MAT_Cabin_Winterlands_01.001_baseColor.png"
    },
    {
      "uri": "textures/8bit_square_Blue.001_baseColor.png"
    },
    {
      "uri": "textures/MAT_Cabin_Winterlands_Glass_01.001_baseColor.png"
    }
  ],
  "materials": [
    {
      "doubleSided": true,
      "name": "MAT_Cabin_Winterlands_01.001",
      "pbrMetallicRoughness": {
        "baseColorTexture": {
          "index": 0
        },
        "metallicFactor": 0.0,
        "roughnessFactor": 0.7885257473118872
      }
    },
    {
      "doubleSided": true,
      "name": "8bit_square_Blue.001",
      "pbrMetallicRoughness": {
        "baseColorTexture": {
          "index": 1
        },
        "metallicFactor": 0.0,
        "roughnessFactor": 0.8308205978495098
      }
    },
    {
      "doubleSided": true,
      "name": "MAT_Cabin_Winterlands_Glass_01.001",
      "pbrMetallicRoughness": {
        "baseColorTexture": {
          "index": 2
        },
        "metallicFactor": 0.0,
        "roughnessFactor": 0.902192384135983
      }
    }
  ],
  "meshes": [
    {
      "name": "PFB_Cabin_Winterlands_Ceiling_01_MAT_Cabin_Winterlands_01.001_0",
      "primitives": [
        {
          "attributes": {
            "COLOR_0": 2,
            "NORMAL": 1,
            "POSITION": 0,
            "TEXCOORD_0": 3
          },
          "indices": 4,
          "material": 0,
          "mode": 4
        }
      ]
    },
    {
      "name": "PFB_Cabin_Winterlands_Ceiling_01_8bit_square_Blue.001_0",
      "primitives": [
        {
          "attributes": {
            "COLOR_0": 7,
            "NORMAL": 6,
            "POSITION": 5,
            "TEXCOORD_0": 8
          },
          "indices": 9,
          "material": 1,
          "mode": 4
        }
      ]
    },
    {
      "name": "PFB_Cabin_Winterlands_Ground_01_MAT_Cabin_Winterlands_01.001_0",
      "primitives": [
        {
          "attributes": {
            "NORMAL": 11,
            "POSITION": 10,
            "TEXCOORD_0": 12
          },
          "indices": 13,
          "material": 0,
          "mode": 4
        }
      ]
    },
    {
      "name": "PFB_Cabin_Winterlands_Glass_01_MAT_Cabin_Winterlands_Glass_01.001_0",
      "primitives": [
        {
          "attributes": {
            "NORMAL": 15,
            "POSITION": 14,
            "TEXCOORD_0": 16
          },
          "indices": 17,
          "material": 2,
          "mode": 4
        }
      ]
    },
    {
      "name": "PFB_Cabin_Winterlands_Door_01_MAT_Cabin_Winterlands_01.001_0",
      "primitives": [
        {
          "attributes": {
            "NORMAL": 19,
            "POSITION": 18,
            "TEXCOORD_0": 20
          },
          "indices": 21,
          "material": 0,
          "mode": 4
        }
      ]
    },
    {
      "name": "PFB_Cabin_Winterlands_Door_02_MAT_Cabin_Winterlands_01.001_0",
      "primitives": [
        {
          "attributes": {
            "NORMAL": 23,
            "POSITION": 22,
            "TEXCOORD_0": 24
          },
          "indices": 25,
          "material": 0,
          "mode": 4
        }
      ]
    }
  ],
  "nodes": [
    {
      "children": [
        1
      ],
      "matrix": [
        1.0,
        0.0,
        0.0,
        0.0,
        0.0,
        2.220446049250313e-16,
        -1.0,
        0.0,
        0.0,
        1.0,
        2.220446049250313e-16,
        0.0,
        0.0,
        0.0,
        0.0,
        1.0
      ],
      "name": "Sketchfab_model"
    },
    {
      "children": [
        2
      ],
      "matrix": [
        0.009999999776482582,
        0.0,
        0.0,
        0.0,
        0.0,
        0.0,
        0.009999999776482582,
        0.0,
        0.0,
        -0.009999999776482582,
        0.0,
        0.0,
        0.0,
        0.0,
        0.0,
        1.0
      ],
      "name": "113069144ab44e81a8c760c416c89e32.fbx"
    },
    {
      "children": [
        3,
        6,
        8,
        10,
        12
      ],
      "name": "RootNode"
    },
    {
      "children": [
        4,
        5
      ],
      "matrix": [
        100.0,
        0.0,
        0.0,
        0.0,
        0.0,
        99.9999999999999,
        4.371138828673792e-06,
        0.0,
        0.0,
        -4.371138828673792e-06,
        99.9999999999999,
        0.0,
        0.0,
        -6.699591176584363e-05,
        -411.2179260253906,
        1.0
      ],
      "name": "PFB_Cabin_Winterlands_Ceiling_01"
    },
    {
      "mesh": 0,
      "name": "PFB_Cabin_Winterlands_Ceiling_01_MAT_Cabin_Winterlands_01.001_0"
    },
    {
      "mesh": 1,
      "name": "PFB_Cabin_Winterlands_Ceiling_01_8bit_square_Blue.001_0"
    },
    {
      "children": [
        7
      ],
      "matrix": [
        100.0,
        0.0,
        0.0,
        0.0,
        0.0,
        99.9999999999999,
        4.371138828673792e-06,
        0.0,
        0.0,
        -4.371138828673792e-06,
        99.9999999999999,
        0.0,
        0.0,
        -6.699591176584363e-05,
        -411.2179260253906,
        1.0
      ],
      "name": "PFB_Cabin_Winterlands_Ground_01"
    },
    {
      "mesh": 2,
      "name": "PFB_Cabin_Winterlands_Ground_01_MAT_Cabin_Winterlands_01.001_0"
    },
    {
      "children": [
        9
      ],
      "matrix": [
        100.0,
        0.0,
        0.0,
        0.0,
        0.0,
        99.9999999999999,
        4.371138828673792e-06,
        0.0,
        0.0,
        -4.371138828673792e-06,
        99.9999999999999,
        0.0,
        0.0,
        -6.699591176584363e-05,
        -411.2179260253906,
        1.0
      ],
      "name": "PFB_Cabin_Winterlands_Glass_01"
    },
    {
      "mesh": 3,
      "name": "PFB_Cabin_Winterlands_Glass_01_MAT_Cabin_Winterlands_Glass_01.001_0"
    },
    {
      "children": [
        11
      ],
      "matrix": [
        100.0,
        0.0,
        0.0,
        0.0,
        0.0,
        99.9999999999999,
        4.371138828673792e-06,
        0.0,
        0.0,
        -4.371138828673792e-06,
        99.9999999999999,
        0.0,
        0.0,
        -6.699591176584363e-05,
        -411.2179260253906,
        1.0
      ],
      "name": "PFB_Cabin_Winterlands_Door_01"
    },
    {
      "mesh": 4,
      "name": "PFB_Cabin_Winterlands_Door_01_MAT_Cabin_Winterlands_01.001_0"
    },
    {
      "children": [
        13
      ],
      "matrix": [
        100.0,
        0.0,
        0.0,
        0.0,
        0.0,
        99.9999999999999,
        4.371138828673792e-06,
        0.0,
        0.0,
        -4.371138828673792e-06,
        99.9999999999999,
        0.0,
        0.0,
        -6.699591176584363e-05,
        -411.2179260253906,
        1.0
      ],
      "name": "PFB_Cabin_Winterlands_Door_02"
    },
    {
      "mesh": 5,
      "name": "PFB_Cabin_Winterlands_Door_02_MAT_Cabin_Winterlands_01.001_0"
    }
  ],
  "samplers": [
    {
      "magFilter": 9729,
      "minFilter": 9987,
      "wrapS": 10497,
      "wrapT": 10497
    }
  ],
  "scene": 0,
  "scenes": [
    {
      "name": "Sketchfab_Scene",
      "nodes": [
        0
      ]
    }
  ],
  "textures": [
    {
      "sampler": 0,
      "source": 0
    },
    {
      "sampler": 0,
      "source": 1
    },
    {
      "sampler": 0,
      "source": 2
    }
  ]
}
