{
  "accessors": [
    {
      "bufferView": 2,
      "componentType": 5126,
      "count": 46126,
      "max": [
        22.381704330444336,
        20.84632682800293,
        4.913325786590576
      ],
      "min": [
        -25.20229148864746,
        -16.642168045043945,
        -4.277434825897217
      ],
      "type": "VEC3"
    },
    {
      "bufferView": 2,
      "byteOffset": 553512,
      "componentType": 5126,
      "count": 46126,
      "max": [
        0.999998927116394,
        0.9999927282333374,
        0.9999998807907104
      ],
      "min": [
        -0.9999953508377075,
        -0.9999704360961914,
        -0.9996642470359802
      ],
      "type": "VEC3"
    },
    {
      "bufferView": 3,
      "componentType": 5126,
      "count": 46126,
      "max": [
        0.9999907612800598,
        0.9999896883964539,
        0.9999866485595703,
        1.0
      ],
      "min": [
        -0.9999993443489075,
        -0.9999708533287048,
        -0.9999785423278809,
        -1.0
      ],
      "type": "VEC4"
    },
    {
      "bufferView": 1,
      "componentType": 5126,
      "count": 46126,
      "max": [
        0.9969409704208374,
        0.9999480247497559
      ],
      "min": [
        -1.4000000192027073e-05,
        7.000000096013537e-06
      ],
      "type": "VEC2"
    },
    {
      "bufferView": 0,
      "componentType": 5125,
      "count": 210126,
      "type": "SCALAR"
    }
  ],
  "asset": {
    "extras": {
      "author": "fuzzelhjb (https://sketchfab.com/fuzzelhjb)",
      "license": "CC-BY-4.0 (http://creativecommons.org/licenses/by/4.0/)",
      "source": "https://sketchfab.com/3d-models/ancient-corinth-peirene-fountain-d7a85f6096584f02817ff255c16608e0",
      "title": "Ancient Corinth - Peirene Fountain"
    },
    "generator": "Sketchfab-12.66.0",
    "version": "2.0"
  },
  "bufferViews": [
    {
      "buffer": 0,
      "byteLength": 840504,
      "name": "floatBufferViews",
      "target": 34963
    },
    {
      "buffer": 0,
      "byteLength": 369008,
      "byteOffset": 840504,
      "byteStride": 8,
      "name": "floatBufferViews",
      "target": 34962
    },
    {
      "buffer": 0,
      "byteLength": 1107024,
      "byteOffset": 1209512,
      "byteStride": 12,
      "name": "floatBufferViews",
      "target": 34962
    },
    {
      "buffer": 0,
      "byteLength": 738016,
      "byteOffset": 2316536,
      "byteStride": 16,
      "name": "floatBufferViews",
      "target": 34962
    }
  ],
  "buffers": [
    {
      "byteLength": 3054552,
      "uri": "scene.bin"
    }
  ],
  "images": [
    {
      "uri": "textures/corinth_low_baseColor.jpeg"
    },
    {
      "uri": "textures/corinth_low_metallicRoughness.png"
    },
    {
      "uri": "textures/corinth_low_normal.png"
    }
  ],
  "materials": [
    {
      "name": "corinth_low",
      "normalTexture": {
        "index": 2
      },
      "occlusionTexture": {
        "index": 1
      },
      "pbrMetallicRoughness": {
        "baseColorTexture": {
          "index": 0
        },
        "metallicFactor": 0.0,
        "metallicRoughnessTexture": {
          "index": 1
        }
      }
    }
  ],
  "meshes": [
    {
      "name": "Object_0",
      "primitives": [
        {
          "attributes": {
            "NORMAL": 1,
            "POSITION": 0,
            "TANGENT": 2,
            "TEXCOORD_0": 3
          },
          "indices": 4,
          "material": 0,
          "mode": 4
        }
      ]
    }
  ],
  "nodes": [
    {
      "children": [
        1
      ],
      "matrix": [
        1.0,
        0.0,
        0.0,
        0.0,
        0.0,
        2.220446049250313e-16,
        -1.0,
        0.0,
        0.0,
        1.0,
        2.220446049250313e-16,
        0.0,
        0.0,
        0.0,
        0.0,
        1.0
      ],
      "name": "Sketchfab_model"
    },
    {
      "children": [
        2
      ],
      "name": "corinth_low.obj.cleaner.materialmerger.gles"
    },
    {
      "mesh": 0,
      "name": "Object_2"
    }
  ],
  "samplers": [
    {
      "magFilter": 9729,
      "minFilter": 9987,
      "wrapS": 10497,
      "wrapT": 10497
    }
  ],
  "scene": 0,
  "scenes": [
    {
      "name": "Sketchfab_Scene",
      "nodes": [
        0
      ]
    }
  ],
  "textures": [
    {
      "sampler": 0,
      "source": 0
    },
    {
      "sampler": 0,
      "source": 1
    },
    {
      "sampler": 0,
      "source": 2
    }
  ]
}
